<!--?xml version="1.0" standalone="no"?-->
<svg id="visual" viewBox="0 0 900 600" width="900" height="600" xmlns="http://www.w3.org/2000/svg" xmlns:xlink="http://www.w3.org/1999/xlink" version="1.1"><rect x="0" y="0" width="900" height="600" fill="#001322"></rect><defs><linearGradient id="grad1_0" x1="33.3%" y1="0%" x2="100%" y2="100%"><stop offset="20%" stop-color="#001322" stop-opacity="1"></stop><stop offset="80%" stop-color="#001322" stop-opacity="1"></stop></linearGradient></defs><defs><linearGradient id="grad2_0" x1="0%" y1="0%" x2="66.7%" y2="100%"><stop offset="20%" stop-color="#001322" stop-opacity="1"></stop><stop offset="80%" stop-color="#001322" stop-opacity="1"></stop></linearGradient></defs><g transform="translate(900, 0)"><path d="M0 486.7C-58.1 460.8 -116.2 434.8 -169.1 408.4C-222.1 381.9 -269.8 354.9 -319.6 319.6C-369.5 284.4 -421.5 240.9 -449.7 186.3C-477.9 131.6 -482.3 65.8 -486.7 0L0 0Z" fill="#415aac"></path></g><g transform="translate(0, 600)"><path d="M0 -486.7C47.3 -436.3 94.5 -385.9 151.2 -364.9C207.8 -344 273.7 -352.5 328.1 -328.1C382.5 -303.7 425.2 -246.4 449.7 -186.3C474.2 -126.1 480.5 -63.1 486.7 0L0 0Z" fill="#415aac"></path></g></svg>